HIERARCHY
ROOT Hips
{
	OFFSET 0.000000 0.000000 0.000000
	CHANNELS 6 Xposition Yposition Zposition Zrotation Yrotation Xrotation 
	JOINT LHipJoint
	{
		OFFSET 0.000000 0.000000 0.000000
		CHANNELS 3 Zrotation Yrotation Xrotation
		JOINT LeftUpLeg
		{
			OFFSET 1.363060 -1.794630 0.839290
			CHANNELS 3 Zrotation Yrotation Xrotation
			JOINT LeftLeg
			{
				OFFSET 2.448110 -6.726130 0.000000
				CHANNELS 3 Zrotation Yrotation Xrotation
				JOINT LeftFoot
				{
					OFFSET 2.562200 -7.039590 0.000000
					CHANNELS 3 Zrotation Yrotation Xrotation
					JOINT LeftToeBase
					{
						OFFSET 0.157640 -0.433110 2.322550
						CHANNELS 3 Zrotation Yrotation Xrotation
						End Site
						{
							OFFSET 0.000000 0.000000 0.000000
						}
					}
				}
			}
		}
	}
	JOINT RHipJoint
	{
		OFFSET 0.000000 0.000000 0.000000
		CHANNELS 3 Zrotation Yrotation Xrotation
		JOINT RightUpLeg
		{
			OFFSET -1.305520 -1.794630 0.839290
			CHANNELS 3 Zrotation Yrotation Xrotation
			JOINT RightLeg
			{
				OFFSET -2.542530 -6.985550 0.000000
				CHANNELS 3 Zrotation Yrotation Xrotation
				JOINT RightFoot
				{
					OFFSET -2.568260 -7.056230 0.000000
					CHANNELS 3 Zrotation Yrotation Xrotation
					JOINT RightToeBase
					{
						OFFSET -0.164730 -0.452590 2.363150
						CHANNELS 3 Zrotation Yrotation Xrotation
						End Site
						{
							OFFSET 0.000000 0.000000 0.000000
						}
					}
				}
			}
		}
	}
}
MOTION
Frames: 16
Frame Time: 0.008333
-19.537479 15.312188 -2.514086 154.782425 84.725504 -175.570286 -12.047347 3.634040 -1.502692 -0.398628 9.755961 2.856308 -1.709489 -0.077267 9.203788 0.518295 3.940606 1.564396 0.565500 0.000000 -86.451100 8.559759 2.196938 3.956029 -0.443955 3.239831 -77.849133 0.327018 -4.537621 51.242391 -1.524517 -4.769057 -4.535752 -0.946800 0.000000 -43.014300
-19.263882 15.318817 -2.487107 159.782958 84.963441 -170.250016 -12.159389 3.832963 -1.302390 0.293628 9.476675 2.126456 -1.499846 0.164621 10.587177 0.600639 4.477684 4.333367 0.817299 0.000000 -88.349900 8.537934 2.265995 3.880059 0.173559 3.699517 -77.700849 0.217056 -4.576927 52.620282 -1.652280 -5.308779 -5.018332 -0.953100 0.000001 -42.787100
-18.991257 15.332630 -2.458544 164.340247 85.248345 -165.375250 -12.315944 4.013280 -1.107969 0.881832 9.180843 1.238301 -1.278042 0.400522 12.220395 0.726173 5.108884 7.163257 1.111900 -0.000000 -89.208201 8.474487 2.327615 3.788309 0.839862 4.151317 -77.427831 0.140983 -4.583127 53.784867 -1.768140 -5.760545 -5.712745 -0.916500 -0.000000 -42.763400
-18.720297 15.353712 -2.428049 168.331702 85.554226 -161.077080 -12.502082 4.154355 -0.920423 1.341318 8.850506 0.196195 -1.050744 0.616915 14.127652 0.890687 5.825365 9.943480 1.455000 -0.000000 -88.795900 8.378189 2.365841 3.685018 1.529465 4.564685 -77.024256 0.099535 -4.563570 54.729916 -1.869545 -6.106499 -6.597334 -0.834500 -0.000000 -42.924700
-18.452135 15.382047 -2.395311 171.663703 85.862307 -157.457504 -12.694439 4.242100 -0.742740 1.655421 8.479166 -0.996240 -0.829074 0.804655 16.326957 1.084179 6.613279 12.542159 1.846900 -0.000000 -86.963100 8.265992 2.371949 3.575412 2.218585 4.915883 -76.485339 0.092221 -4.525534 55.451486 -1.954397 -6.334605 -7.634273 -0.710600 0.000000 -43.234300
-18.187489 15.417680 -2.360355 174.323869 86.165425 -154.535101 -12.871488 4.271801 -0.580529 1.820114 8.079722 -2.339966 -0.626738 0.962049 18.826568 1.292264 7.451569 14.822116 2.278001 0.000000 -83.703200 8.155125 2.345163 3.464607 2.889421 5.194886 -75.807337 0.117204 -4.473549 55.945359 -2.021608 -6.442763 -8.772873 -0.554000 0.000000 -43.646400
-17.926656 15.460595 -2.323338 176.347834 86.463814 -152.277360 -13.018118 4.246616 -0.441518 1.839980 7.678579 -3.837918 -0.455603 1.094806 21.616457 1.499532 8.319357 16.666205 2.730800 0.000000 -79.202700 8.058774 2.289092 3.357201 3.528080 5.402556 -74.989041 0.171287 -4.409482 56.207983 -2.071006 -6.438045 -9.955131 -0.378200 0.000001 -44.112400
-17.670138 15.510698 -2.284737 177.852163 86.762076 -150.571624 -13.129706 4.176089 -0.332518 1.730035 7.310646 -5.490683 -0.321687 1.214152 24.666854 1.692930 9.196555 17.995940 3.181300 -0.000000 -73.830400 7.982320 2.207956 3.258042 4.127904 5.551070 -74.029371 0.249989 -4.332224 56.237834 -2.103990 -6.338430 -11.122391 -0.198100 0.000000 -44.586800
-17.417951 15.567895 -2.244922 178.912492 87.064101 -149.341797 -13.204384 4.070280 -0.259523 1.499931 6.996789 -7.287915 -0.222652 1.332053 27.918811 1.865459 10.080871 18.793281 3.612400 -0.000000 -68.097201 7.928607 2.106326 3.169922 4.678642 5.653406 -72.931175 0.348206 -4.240659 56.034930 -2.122592 -6.166262 -12.222270 -0.027000 0.000000 -45.030400
-17.170050 15.632104 -2.204401 179.645394 87.375768 -148.471447 -13.246620 3.938683 -0.224712 1.163204 6.750098 -9.212221 -0.150152 1.458143 31.298580 2.015977 10.975632 19.089003 4.012100 0.000001 -62.529500 7.895133 1.987746 3.094716 5.175469 5.727462 -71.696914 0.460698 -4.132457 55.599791 -2.129983 -5.949045 -13.212551 0.125100 -0.000000 -45.412800
-16.926327 15.703163 -2.163695 -179.828229 87.703665 -147.837323 -13.263578 3.788125 -0.227447 0.733364 6.575809 -11.243072 -0.093872 1.597758 34.728484 2.146862 11.881562 18.937997 4.370000 -0.000000 -57.482399 7.876600 1.854868 3.033625 5.615213 5.792631 -70.330828 0.582575 -4.005085 54.933319 -2.129900 -5.714727 -14.064924 0.252700 0.000000 -45.711700
-16.686398 15.780953 -2.123118 -179.422078 88.053892 -147.350104 -13.260918 3.622366 -0.264947 0.219978 6.469017 -13.353591 -0.044080 1.751073 38.124145 2.263391 12.804683 18.417399 4.682900 0.000001 -53.254900 7.868159 1.710461 2.986339 5.993921 5.864506 -68.837025 0.709858 -3.856744 54.035980 -2.125797 -5.486945 -14.765708 0.354300 0.000000 -45.912400
-16.449555 15.865155 -2.083028 -179.007337 88.432694 -146.876196 -13.246834 3.443393 -0.333226 -0.362844 6.427310 -15.524261 0.004733 1.916132 41.414248 2.368767 13.729827 17.577667 4.936400 0.000000 -49.754200 7.861824 1.556130 2.952792 6.312653 5.959280 -67.221415 0.839653 -3.685234 52.907138 -2.121256 -5.285948 -15.313824 0.431700 -0.000000 -46.005801
-16.215362 15.955453 -2.043626 -178.472029 88.844479 -146.298620 -13.227254 3.251904 -0.425436 -1.004029 6.438382 -17.731416 0.055675 2.087536 44.521461 2.467871 14.651821 16.495946 5.127800 -0.000000 -47.092900 7.850600 1.393285 2.932421 6.572916 6.087576 -65.488866 0.970291 -3.488947 51.544804 -2.118875 -5.124188 -15.718130 0.488200 -0.000000 -45.989600
-15.982744 16.051260 -2.005052 -177.669390 89.290897 -145.464668 -13.208408 3.048013 -0.534353 -1.690611 6.489931 -19.957458 0.108067 2.259903 47.383107 2.562667 15.550039 15.223522 5.247300 0.000000 -45.127400 7.826456 1.222220 2.924513 6.778581 6.255457 -63.644403 1.101188 -3.266497 49.946215 -2.120326 -5.007349 -15.993278 0.527600 -0.000000 -45.867800
-15.751062 16.151875 -1.967369 -176.416394 89.769440 -144.185264 -13.196111 2.830953 -0.651912 -2.411429 6.564347 -22.186000 0.159405 2.427406 49.944758 2.654003 16.402069 13.809057 5.288500 0.000001 -43.709300 7.781211 1.042116 2.927759 6.933302 6.461861 -61.693490 1.232689 -3.017185 48.108022 -2.125989 -4.934221 -16.155418 0.553000 -0.000000 -45.651700
